<?xml version="1.0" encoding="utf-8"?>
<!-- Generator: Adobe Illustrator 18.1.1, SVG Export Plug-In . SVG Version: 6.00 Build 0)  -->
<!DOCTYPE svg PUBLIC "-//W3C//DTD SVG 1.1//EN" "http://www.w3.org/Graphics/SVG/1.1/DTD/svg11.dtd">
<svg version="1.1" xmlns="http://www.w3.org/2000/svg" xmlns:xlink="http://www.w3.org/1999/xlink" x="0px" y="0px"
	 viewBox="0 0 40 40" enable-background="new 0 0 40 40" xml:space="preserve">
<g id="calendar" display="none">
	<g id="_x35__16_" display="inline">
		<g>
			<path fill="#FFFFFF" d="M27,32h2c1.1,0,2-0.9,2-2v-2c0-1.1-0.9-2-2-2h-2c-1.1,0-2,0.9-2,2v2C25,31.1,25.9,32,27,32z M27,28h2v2
				h-2V28z M27,24h2c1.1,0,2-0.9,2-2v-2c0-1.1-0.9-2-2-2h-2c-1.1,0-2,0.9-2,2v2C25,23.1,25.9,24,27,24z M27,20h2v2h-2V20z M19,32h2
				c1.1,0,2-0.9,2-2v-2c0-1.1-0.9-2-2-2h-2c-1.1,0-2,0.9-2,2v2C17,31.1,17.9,32,19,32z M19,28h2v2h-2V28z M31,6h-4V5
				c0-0.6-0.4-1-1-1c-0.6,0-1,0.4-1,1v1H15V5c0-0.6-0.4-1-1-1c-0.6,0-1,0.4-1,1v1H9c-2.2,0-4,1.8-4,4v22c0,2.2,1.8,4,4,4h22
				c2.2,0,4-1.8,4-4V10C35,7.8,33.2,6,31,6z M33,32c0,1.1-0.9,2-2,2H9c-1.1,0-2-0.9-2-2V14h26V32z M33,12H7v-2c0-1.1,0.9-2,2-2h4v1
				c0,0.6,0.4,1,1,1c0.6,0,1-0.4,1-1V8h10v1c0,0.6,0.4,1,1,1c0.6,0,1-0.4,1-1V8h4c1.1,0,2,0.9,2,2V12z M11,32h2c1.1,0,2-0.9,2-2v-2
				c0-1.1-0.9-2-2-2h-2c-1.1,0-2,0.9-2,2v2C9,31.1,9.9,32,11,32z M11,28h2v2h-2V28z M11,24h2c1.1,0,2-0.9,2-2v-2c0-1.1-0.9-2-2-2h-2
				c-1.1,0-2,0.9-2,2v2C9,23.1,9.9,24,11,24z M11,20h2v2h-2V20z M19,24h2c1.1,0,2-0.9,2-2v-2c0-1.1-0.9-2-2-2h-2c-1.1,0-2,0.9-2,2v2
				C17,23.1,17.9,24,19,24z M19,20h2v2h-2V20z"/>
		</g>
	</g>
</g>
<g id="person">
	<g id="_x36__17_">
		<g>
			<path fill="#FFFFFF" d="M27.7,20.4c1.4-1.7,2.3-3.9,2.3-6.4c0-5.5-4.5-10-10-10S10,8.5,10,14c0,2.4,0.9,4.6,2.3,6.4
				c-2.6,0.8-4.5,3-4.5,5.6v4c0,3.3,3,6,6.6,6h11.1c3.7,0,6.6-2.7,6.6-6v-4C32.2,23.4,30.3,21.2,27.7,20.4z M12.2,14
				c0-4.4,3.5-8,7.8-8s7.8,3.6,7.8,8c0,4.4-3.5,8-7.8,8S12.2,18.4,12.2,14z M30,29.5c0,2.5-2.4,4.5-5.4,4.5h-9.1c-3,0-5.4-2-5.4-4.5
				v-3c0-2.1,1.8-3.9,4.2-4.4c1.6,1.2,3.6,1.9,5.8,1.9c2.2,0,4.2-0.7,5.8-1.9c2.4,0.5,4.2,2.2,4.2,4.4V29.5z"/>
		</g>
	</g>
</g>
<g id="add" display="none">
	<g id="_x31__3_" display="inline">
		<g>
			<path fill="#FFFFFF" d="M26,19h-5v-5c0-0.6-0.4-1-1-1s-1,0.4-1,1v5h-5c-0.6,0-1,0.4-1,1c0,0.6,0.4,1,1,1h5v5c0,0.6,0.4,1,1,1
				s1-0.4,1-1v-5h5c0.6,0,1-0.4,1-1C27,19.4,26.6,19,26,19z M32,4H8C5.8,4,4,5.8,4,8v24c0,2.2,1.8,4,4,4h24c2.2,0,4-1.8,4-4V8
				C36,5.8,34.2,4,32,4z M34,32c0,1.1-0.9,2-2,2H8c-1.1,0-2-0.9-2-2V8c0-1.1,0.9-2,2-2h24c1.1,0,2,0.9,2,2V32z"/>
		</g>
	</g>
</g>
<g id="gift_1_" display="none">
	<g id="_x31__8_" display="inline">
		<g>
			<path fill="#FFFFFF" d="M34,10h-7.6C26.8,9.4,27,8.7,27,8c0-2.2-1.8-4-4-4c-1.2,0-2.3,0.5-3,1.4C19.3,4.5,18.2,4,17,4
				c-2.2,0-4,1.8-4,4c0,0.7,0.2,1.4,0.6,2H6c-1.1,0-2,0.9-2,2v2c0,1.1,0.9,2,2,2v16c0,2.2,1.8,4,4,4h20c2.2,0,4-1.8,4-4V16
				c1.1,0,2-0.9,2-2v-2C36,10.9,35.1,10,34,10z M23,6c1.1,0,2,0.9,2,2s-0.9,2-2,2s-2-0.9-2-2S21.9,6,23,6z M17,6c1.1,0,2,0.9,2,2
				s-0.9,2-2,2s-2-0.9-2-2S15.9,6,17,6z M19,34h-9c-1.1,0-2-0.9-2-2v-6h11V34z M19,24H8v-8h11V24z M32,32c0,1.1-0.9,2-2,2h-9v-8h11
				V32z M32,24H21v-8h11V24z M33,14H7c-0.6,0-1-0.4-1-1c0-0.6,0.4-1,1-1h26c0.6,0,1,0.4,1,1C34,13.6,33.6,14,33,14z"/>
		</g>
	</g>
</g>
</svg>
